Star Wars Episode VI - Return Of The Jedi 1983 BRRip 720p x264 AAC ViZNU [VX] [P2PDL]
 
http://www.shotpix.com/images/45242921772478417430.jpg

Release Title: Star Wars: Episode VI - Return of the Jedi (1983)

Tagline: The Saga Continues.

Genres: Action | Adventure | Fantasy | Sci-Fi

Ratings: 8.4/10 |  
http://www.imdb.com/title/tt0086190/

Plot: After rescuing Han Solo from the palace of Jabba the Hutt, the Rebels attempt to destroy the Second Death Star, while Luke Skywalker tries to bring his father back to the Light Side of the Force.

Director: Richard Marquand

Stars: Mark Hamill, Harrison Ford and Carrie Fisher 

Rated: Rated PG for sci-fi action violence.


General
Format                         : MPEG-4
Format profile                 : Base Media / Version 2
Codec ID                       : mp42
File size                      : 731 MiB
Duration                       : 2h 14mn

Source                         : 720p-Tobotron (Thanks!)

Video
ID                             : 1
Format                         : AVC
Format/Info                    : Advanced Video Codec
Width                          : 1 280 pixels
Height                         : 544 pixels
Display aspect ratio           : 2.35:1
Frame rate mode                : Variable
Frame rate                     : 23.976 fps
Color space                    : YUV
Chroma subsampling             : 4:2:0
Bit depth                      : 8 bits
Scan type                      : Progressive
Bits/(Pixel*Frame)             : 0.039
Stream size                    : 631 MiB (86%)
Writing library                : x264 core 128

Audio
ID                             : 2
Format                         : AAC
Format/Info                    : Advanced Audio Codec
Format profile                 : LC
Codec ID                       : 40
Duration                       : 2h 14mn
Bit rate mode                  : Variable
Channel(s)                     : 2 channels
Channel positions              : Front: L R
Sampling rate                  : 48.0 KHz
Stream size                    : 92.5 MiB (13%)
Language                       : English

Subtitles                      : Yes (Muxed, Multiple Languages - English, Spanish, French, Portuguese)

Screens:
 
http://www.shotpix.com/images/74520167068943910038.jpg 
http://www.shotpix.com/images/95891654214986019443.jpg 
http://www.shotpix.com/images/70972933897633095427.jpg 
http://www.shotpix.com/images/50438016016052013803.jpg 
http://www.shotpix.com/images/88885373779818955721.jpg 
http://www.shotpix.com/images/43297706186788944470.jpg 
http://www.shotpix.com/images/75957219024656236489.jpg

Thumbs:
 
http://www.shotpix.com/images/51537091214593441560.jpg
------------------------------------------------------------------------


Notes:

* Check sample to be sure.
* Recommended to use latest version VLC Media Player.
* Install updated shark007 codecs in case of any kind of problem in playback (For non-VLC Media Player users).
* Alternatively, install Core AVC codecs, the fastest decoder that there is coupled with Community Center Codec Pack and play on Windows Media Player Classic.
* Read NFO.
* Help in seeding as much as you can. 


Greets to: VYTO, a2zRG, K1ng_rulz, staff members at ExtraTorrent, TPB,KAT, 1337x, PublicHD, Ahashare,
SilverTorrent, TorrentMafia, Digtorrent, BTScene, P2PDL, and all others


Encoder Notes: Looking For Early Access To Anything You Can Provide DVDScr, R5, DVDRips, BluRay, Direct Audio, Early Music
Releases, Seedboxes, Links, Dedicated Servers anything u can provide, Advance / Promo CDs/DVDs. If You Got anything to
offer contact me at "prg@hush.com"


Facebook Fan Page: www . facebook . com / p2pdl

Enhanced for best viewing experience. Enjoy!